<svg width="61" height="62" viewBox="0 0 61 62" fill="none" xmlns="http://www.w3.org/2000/svg">
<g style="mix-blend-mode:multiply">
<rect y="0.534668" width="61" height="61" rx="15" fill="#FEE5A4"/>
</g>
<path d="M22.3 40.0347C20.8 40.0347 19.5 38.7347 19.5 37.2347V33.6347C19.5 32.0347 20.8 30.8347 22.3 30.8347C23.9 30.8347 25.1 32.1347 25.1 33.6347V37.2347C25.1 38.7347 23.9 40.0347 22.3 40.0347Z" fill="#DD9F00"/>
<path d="M30.4992 40.0347C28.8992 40.0347 27.6992 38.7347 27.6992 37.2347V28.1347C27.6992 26.5347 28.9992 25.3347 30.4992 25.3347C32.0992 25.3347 33.2992 26.6347 33.2992 28.1347V37.2347C33.2992 38.7347 32.0992 40.0347 30.4992 40.0347Z" fill="#DD9F00"/>
<path d="M38.7004 40.0347C37.1004 40.0347 35.9004 38.7347 35.9004 37.2347V20.8347C35.9004 19.2347 37.2004 18.0347 38.7004 18.0347C40.2004 18.0347 41.5004 19.3347 41.5004 20.8347V37.2347C41.5004 38.7347 40.2004 40.0347 38.7004 40.0347Z" fill="#DD9F00"/>
</svg>
