<svg width="59" height="59" viewBox="0 0 59 59" fill="none" xmlns="http://www.w3.org/2000/svg">
<circle cx="29.6797" cy="29.5747" r="28" fill="#EAEDB6" stroke="#EAEDB6" stroke-width="2"/>
<path d="M24.8997 36.5747L24.2197 34.8947L28.2397 30.4547C28.4797 30.2014 28.733 29.9147 28.9997 29.5947C29.2664 29.2747 29.5197 28.948 29.7597 28.6147C30.013 28.268 30.213 27.9347 30.3597 27.6147C30.5197 27.2947 30.5997 27.008 30.5997 26.7547C30.5997 26.488 30.5397 26.2547 30.4197 26.0547C30.313 25.8547 30.1464 25.7014 29.9197 25.5947C29.7064 25.4747 29.4264 25.4147 29.0797 25.4147C28.7864 25.4147 28.4997 25.4947 28.2197 25.6547C27.9397 25.8147 27.673 26.0547 27.4197 26.3747C27.1797 26.6814 26.953 27.0747 26.7397 27.5547L24.2197 26.1547C24.4997 25.3814 24.893 24.7014 25.3997 24.1147C25.9197 23.528 26.5264 23.068 27.2197 22.7347C27.913 22.4014 28.653 22.2414 29.4397 22.2547C30.2664 22.2547 31.0064 22.428 31.6597 22.7747C32.3264 23.1214 32.853 23.6014 33.2397 24.2147C33.6397 24.8147 33.8397 25.5214 33.8397 26.3347C33.8397 26.6947 33.7864 27.068 33.6797 27.4547C33.5864 27.8414 33.4264 28.2547 33.1997 28.6947C32.9864 29.1214 32.6997 29.5814 32.3397 30.0747C31.9797 30.568 31.5397 31.1014 31.0197 31.6747L27.9197 35.0547L27.4997 33.5547H34.4597V36.5747H24.8997Z" fill="#3D425A"/>
</svg>
