<svg width="59" height="59" viewBox="0 0 59 59" fill="none" xmlns="http://www.w3.org/2000/svg">
<circle cx="29.6797" cy="29.5747" r="28" stroke="#3D425A" stroke-width="2"/>
<path d="M29.3997 36.7747C28.2664 36.7747 27.2797 36.5414 26.4397 36.0747C25.5997 35.5947 24.8264 34.7747 24.1197 33.6147L26.5997 32.0547C26.8797 32.508 27.173 32.8747 27.4797 33.1547C27.7997 33.4347 28.1264 33.6414 28.4597 33.7747C28.8064 33.8947 29.1597 33.9547 29.5197 33.9547C29.893 33.9547 30.233 33.8747 30.5397 33.7147C30.8464 33.5414 31.093 33.308 31.2797 33.0147C31.4664 32.708 31.5597 32.3547 31.5597 31.9547C31.5597 31.5414 31.4797 31.2014 31.3197 30.9347C31.1597 30.6547 30.9264 30.4414 30.6197 30.2947C30.313 30.148 29.9397 30.0747 29.4997 30.0747C29.313 30.0747 29.0997 30.1014 28.8597 30.1547C28.633 30.1947 28.393 30.2547 28.1397 30.3347C27.8864 30.4147 27.6264 30.508 27.3597 30.6147L26.6197 28.6347L29.9797 24.9347L30.8997 25.4547L25.0997 25.3547V22.4547H33.6997L34.3397 23.6947L29.7197 28.6347L28.9397 27.6947C29.0464 27.6547 29.2197 27.6147 29.4597 27.5747C29.6997 27.5214 29.9264 27.4947 30.1397 27.4947C30.753 27.4947 31.333 27.608 31.8797 27.8347C32.4264 28.0614 32.913 28.3747 33.3397 28.7747C33.7664 29.1747 34.0997 29.6414 34.3397 30.1747C34.5797 30.708 34.6997 31.288 34.6997 31.9147C34.6997 32.848 34.4597 33.6814 33.9797 34.4147C33.513 35.148 32.8797 35.728 32.0797 36.1547C31.2797 36.568 30.3864 36.7747 29.3997 36.7747Z" fill="#3D425A"/>
</svg>
