<svg width="41" height="41" viewBox="0 0 41 41" fill="none" xmlns="http://www.w3.org/2000/svg">
<path d="M20.1582 10.1757C14.6582 10.1757 10.1582 14.6657 10.1582 20.1957C10.1582 25.1957 13.8182 29.3457 18.5982 30.0957V23.0957H16.0582V20.1957H18.5982V17.9857C18.5982 15.4757 20.0882 14.0957 22.3782 14.0957C23.4682 14.0957 24.6082 14.2857 24.6082 14.2857V16.7557H23.3482C22.1082 16.7557 21.7182 17.5257 21.7182 18.3157V20.1957H24.4982L24.0482 23.0957H21.7182V30.0957C24.0746 29.7236 26.2204 28.5212 27.7681 26.7058C29.3159 24.8903 30.1636 22.5814 30.1582 20.1957C30.1582 14.6657 25.6582 10.1757 20.1582 10.1757Z" fill="#242D3C"/>
</svg>
