<svg width="134" height="68" viewBox="0 0 134 68" fill="none" xmlns="http://www.w3.org/2000/svg">
<path d="M44.5965 16.4966H14.1684C12.3106 16.4966 10.8047 18.0138 10.8047 19.8856V50.5285C10.8047 52.4145 12.3106 53.9317 14.1684 53.9317H44.5825C46.4402 53.9317 47.9462 52.4145 47.9462 50.5427V19.8856C47.9602 18.0138 46.4543 16.4966 44.5965 16.4966V16.4966Z" fill="#2D2D2D"/>
<path d="M62.9782 45.5514H66.539V29.925H62.9782V45.5514ZM75.9686 36.3202C74.153 35.7246 72.4641 35.2567 72.4641 34.1223V34.0656C72.4641 33.1439 73.2523 32.4916 74.6456 32.4916C75.3212 32.4916 76.0671 32.6476 76.8553 32.917C76.8553 32.917 76.8693 32.917 76.8834 32.9312C76.9538 32.9595 77.0241 32.9879 77.0804 33.0021C77.6434 33.1864 79.1634 33.4275 80.4441 31.4139C78.7834 30.3362 76.6723 29.6556 74.7301 29.6556C71.6479 29.6556 69.199 31.4565 69.199 34.4201V34.4768C69.199 37.4688 71.7604 38.4188 74.0545 39.0711C75.8701 39.6383 77.5167 40.0495 77.5167 41.2548V41.3115C77.5167 42.3467 76.6301 42.999 75.1101 42.999C74.0967 42.999 72.9849 42.7295 71.873 42.2049C71.5493 42.0631 69.8886 41.4959 68.4812 43.5378C70.4093 45.0551 72.8441 45.8491 75.0256 45.8491C78.2627 45.8491 80.7819 44.2184 80.7819 40.9287V40.8861C80.7819 38.0643 78.2345 37.0292 75.9686 36.3202ZM53.2812 41.4108L49.1012 29.925H45.2871L51.6627 45.679H54.8716L61.219 29.925H57.4893L53.2812 41.4108ZM97.3049 29.5989C92.5478 29.5989 89.0153 33.2999 89.0153 37.7949C89.0153 42.2616 92.5056 45.9058 97.2486 45.9058C102.034 45.9058 105.566 42.2049 105.566 37.7382C105.566 33.2431 102.062 29.5989 97.3049 29.5989ZM97.3049 42.8004C94.5464 42.8004 92.576 40.5175 92.576 37.7382C92.576 34.9873 94.3916 32.7327 97.2486 32.7327C100.035 32.7327 102.006 35.0156 102.006 37.7949C102.006 40.56 100.176 42.8004 97.3049 42.8004ZM116.108 29.5989C113.701 29.5989 112.252 30.8751 111.252 32.3498V29.925H107.692V45.5655H111.252V36.7456C111.252 34.3208 112.688 32.8603 114.757 32.8603C116.868 32.8603 118.078 34.2499 118.078 36.6747V45.5514H121.639V35.597C121.639 31.9669 119.612 29.5989 116.108 29.5989ZM83.1323 45.5514H86.693V29.925H83.1323V45.5514Z" fill="#2D2D2D"/>
<path d="M23.2179 27.2495C24.4564 27.2495 25.4838 26.271 25.4838 24.9948C25.4838 23.7187 24.4424 22.7402 23.2179 22.7402C21.9794 22.7402 20.952 23.7187 20.952 24.9948C20.952 26.271 21.9935 27.2495 23.2179 27.2495ZM18.5172 39.3166C18.3905 39.8838 18.3201 40.5077 18.3201 41.004C18.3201 42.9892 19.3898 44.308 21.6557 44.308C23.5416 44.308 25.0616 43.1878 26.1594 41.3585L25.4838 44.0669H29.2276L31.3668 35.4313C31.9016 33.2476 32.929 32.1132 34.5053 32.1132C35.7438 32.1132 36.5038 32.8931 36.5038 34.1693C36.5038 34.538 36.4757 34.9492 36.335 35.3746L35.2372 39.345C35.0683 39.9122 34.9979 40.4936 34.9979 41.0324C34.9979 42.9183 36.0957 44.2938 38.4038 44.2938C40.3742 44.2938 41.9364 43.0176 42.809 39.9547L41.3453 39.3875C40.6135 41.4436 39.9801 41.8123 39.4735 41.8123C38.9668 41.8123 38.6994 41.472 38.6994 40.8055C38.6994 40.5077 38.7698 40.1674 38.8683 39.7562L39.9379 35.8851C40.2053 34.9776 40.3038 34.1693 40.3038 33.4319C40.3038 30.5392 38.5727 29.0361 36.4616 29.0361C34.4913 29.0361 32.4927 30.8228 31.4935 32.7088L32.2253 29.3339H26.5113L25.709 32.3117H28.3831L26.7364 38.9479C25.4416 41.8407 23.0772 41.8832 22.7816 41.8265C22.289 41.713 21.9794 41.5287 21.9794 40.8906C21.9794 40.5219 22.0498 39.9973 22.2187 39.345L24.7238 29.3339H18.3764L17.5742 32.3117H20.2061L18.5172 39.3166Z" fill="white"/>
</svg>
