<svg width="101" height="101" viewBox="0 0 101 101" fill="none" xmlns="http://www.w3.org/2000/svg">
<rect x="2.33984" y="1.63501" width="97" height="97" rx="28.5" fill="#242D3C" stroke="#252A3F" stroke-width="3"/>
<path d="M41.8467 24.9977V25.0008C41.2062 25.0008 40.5699 25.0233 39.9414 25.072C39.738 25.0857 39.5335 25.1036 39.3311 25.125C39.0684 25.1519 38.8081 25.1824 38.5486 25.2172C38.4037 25.235 38.262 25.2575 38.1182 25.2768H38.087C37.9779 25.2901 37.8688 25.3122 37.759 25.3293C37.6854 25.343 37.6114 25.3521 37.5405 25.3651C37.3192 25.4054 37.0951 25.4454 36.8748 25.4892C36.5668 25.5516 36.262 25.62 35.9586 25.6929C35.9274 25.7017 35.8906 25.7062 35.8583 25.715C35.8082 25.7283 35.7608 25.7374 35.7142 25.7511L35.6826 25.7595C35.308 25.8542 34.9373 25.9573 34.5696 26.068C34.4307 26.1084 34.2946 26.1532 34.1564 26.1964C34.047 26.2321 33.9407 26.2672 33.832 26.304C33.752 26.3306 33.6696 26.3573 33.5896 26.386C33.5584 26.3945 33.5398 26.4036 33.5128 26.4127C33.4816 26.4214 33.4539 26.4351 33.4241 26.4435C33.2999 26.4884 33.1733 26.5333 33.0505 26.5792C33.0193 26.5883 32.9972 26.6017 32.9706 26.6104C32.9172 26.6332 32.8639 26.6511 32.8113 26.6739C32.711 26.7142 32.6107 26.7507 32.509 26.7906C31.9499 28.1856 31.5125 29.6423 31.209 31.1471C30.8853 32.7546 30.7148 34.4157 30.7148 36.1165C31.4269 46.7862 36.6393 55.223 45.904 59.8704C46.1587 59.9941 46.414 60.1137 46.6718 60.2297C46.7283 60.2525 46.7844 60.2792 46.8406 60.3034C47.0913 60.4138 47.3428 60.5207 47.5961 60.6238C49.2702 61.3036 51.0264 61.8211 52.8461 62.1562C52.8773 62.1562 52.8773 62.1699 52.8935 62.1699C54.4775 62.4585 56.1077 62.6103 57.7741 62.6103V62.5966C58.2346 62.5966 58.6927 62.5833 59.1477 62.5608C59.2006 62.5608 59.2539 62.5475 59.3065 62.5475C59.4132 62.5338 59.5194 62.5338 59.6264 62.5254C59.6945 62.5254 59.7594 62.5254 59.8271 62.5117C60.0487 62.4935 60.2676 62.476 60.4858 62.4536C60.6689 62.4353 60.8488 62.4132 61.0305 62.3932C61.075 62.3796 61.122 62.3796 61.1662 62.3796C61.3732 62.3529 61.5815 62.3238 61.787 62.2937C62.2378 62.2257 62.6836 62.1482 63.1273 62.0595C63.3398 62.0146 63.5527 61.9704 63.7642 61.9227C63.8733 61.9 63.98 61.8723 64.088 61.8453C64.2002 61.6311 64.3128 61.4161 64.4212 61.1984C64.4212 61.1847 64.4521 61.1669 64.4521 61.1483C64.5818 60.8839 64.7067 60.6164 64.8263 60.3468C64.8263 60.3244 64.8579 60.2967 64.8579 60.2721C64.9701 60.0208 65.076 59.768 65.1799 59.512C65.1799 59.4945 65.1799 59.4808 65.2111 59.4623C65.7702 58.0672 66.2072 56.6112 66.5099 55.1068C66.5099 55.0756 66.5099 55.0399 66.5415 55.0073C66.5727 54.9284 66.5727 54.8488 66.5864 54.7699C66.6173 54.6549 66.6309 54.5399 66.6485 54.4246C66.6797 54.3362 66.6797 54.2503 66.6888 54.1627C66.72 54.0466 66.7291 53.9313 66.7446 53.8145C66.7446 53.743 66.7758 53.6711 66.7758 53.6C66.807 53.4681 66.8161 53.3384 66.8291 53.2063C66.8291 53.153 66.8291 53.0983 66.8603 53.0446C66.8919 52.8897 66.8965 52.7351 66.9105 52.579V52.5338C66.9845 51.7446 67.0259 50.9456 67.0259 50.1375C67.0259 48.4361 66.8544 46.7746 66.531 45.1675C66.531 45.1061 66.4994 45.0458 66.4906 44.9855C66.4906 44.9399 66.4591 44.895 66.4591 44.8498C66.4591 44.7892 66.4279 44.7254 66.4187 44.6633C66.3875 44.582 66.3788 44.4999 66.363 44.4193C66.3318 44.3081 66.3128 44.1974 66.2837 44.0873C66.2518 44.0094 66.2434 43.9306 66.2241 43.8524C66.2241 43.8257 66.2241 43.798 66.1932 43.7703C66.1483 43.6024 66.1045 43.4352 66.0568 43.2686C66.0256 43.1733 66.0035 43.0762 65.9736 42.9811C65.9428 42.8896 65.9179 42.7992 65.8884 42.7084C65.8884 42.6719 65.8572 42.6358 65.8572 42.5993C65.8039 42.4318 65.7506 42.2649 65.6948 42.0997C65.6636 42.0303 65.6499 41.9609 65.6243 41.8911C65.497 41.5272 65.364 41.1672 65.2206 40.8113V40.8022C65.189 40.7507 65.1757 40.6984 65.1522 40.6462C64.8197 39.8339 64.4486 39.0419 64.0364 38.274C63.8947 38.0072 63.7443 37.7436 63.5924 37.4827C61.5563 34.0013 58.7075 31.0511 55.3073 28.8935C55.0824 28.7512 54.8569 28.6134 54.6293 28.4791C54.5889 28.4567 54.5461 28.4297 54.5051 28.4055C54.4076 28.3497 54.3101 28.2954 54.2098 28.24C54.0653 28.1576 53.9204 28.0731 53.7713 27.9932C53.7401 27.9795 53.7128 27.962 53.683 27.9465C53.4616 27.828 53.2354 27.7127 53.0092 27.6002C52.9615 27.5781 52.9145 27.5539 52.8703 27.5314C52.811 27.5002 52.7486 27.4757 52.69 27.4469C52.4978 27.3554 52.3073 27.2629 52.113 27.1766C52.0772 27.163 52.0421 27.1447 52.0039 27.1286C51.7707 27.0262 51.5388 26.9274 51.3031 26.8313C48.3867 25.647 45.1997 24.9932 41.8624 24.9932L41.8467 24.9977ZM75.3202 39.4766C72.2119 39.4766 69.6423 42.0443 69.6423 45.1516C69.6423 48.2593 72.2119 50.8267 75.3202 50.8267C78.4293 50.8267 80.9989 48.2593 80.9989 45.1516C80.9989 42.0443 78.4293 39.4766 75.3202 39.4766ZM33.1414 53.4439C31.5977 56.6978 30.7303 60.332 30.7303 64.1675C30.7303 65.8686 30.9018 67.5305 31.2241 69.1372C31.5272 70.642 31.9646 72.0976 32.5243 73.493C32.6776 73.5543 32.8312 73.6139 32.9859 73.6721C33.149 73.7335 33.3124 73.7931 33.4762 73.8503C33.4762 73.8639 33.5075 73.8639 33.5208 73.8639C33.552 73.8772 33.5797 73.8864 33.6095 73.8951C33.7572 73.9453 33.9017 73.9954 34.0504 74.0441C34.0908 74.0578 34.1272 74.0708 34.1655 74.0845C34.2686 74.1157 34.3724 74.1493 34.4752 74.1805C34.5162 74.1942 34.5527 74.203 34.5906 74.2166C34.928 74.3183 35.2679 74.4123 35.6109 74.5003C35.6463 74.5136 35.681 74.5178 35.7172 74.5269C35.7621 74.5402 35.8087 74.5493 35.8561 74.5585C36.0006 74.5942 36.1423 74.6272 36.2882 74.6608C36.4836 74.7057 36.6786 74.7485 36.8753 74.787C38.3829 75.0907 39.9388 75.2575 41.5291 75.2772H41.8465C42.0443 75.2772 42.2386 75.2772 42.434 75.2635H42.6027C42.7476 75.2635 42.8949 75.2505 43.0401 75.246C43.0934 75.246 43.146 75.2323 43.199 75.2323C43.3733 75.2193 43.5501 75.2102 43.7251 75.2011H43.7897C43.9784 75.1878 44.1653 75.1695 44.353 75.151C44.4122 75.1373 44.4712 75.1373 44.5305 75.1334C44.675 75.1198 44.8195 75.1019 44.965 75.084C45.0124 75.0707 45.0594 75.0707 45.1092 75.0661C45.26 75.0433 45.4129 75.0258 45.5638 75.0027C45.6111 74.9893 45.6578 74.9893 45.7027 74.9802C45.8858 74.949 46.0695 74.9213 46.2523 74.8887C46.3024 74.875 46.3522 74.8705 46.4056 74.8568C46.5388 74.8347 46.6714 74.8077 46.803 74.7811C46.8738 74.7674 46.9447 74.7499 47.0124 74.7362C47.1488 74.7054 47.2845 74.6777 47.4203 74.6475C47.4606 74.6338 47.5059 74.6293 47.5476 74.6163C47.7335 74.5714 47.918 74.5276 48.1021 74.4806C48.1379 74.467 48.1702 74.4624 48.2056 74.4533C48.3329 74.4221 48.4627 74.3856 48.5883 74.3499C48.8597 74.2748 49.1281 74.1956 49.395 74.1111C49.435 74.0981 49.4743 74.0844 49.516 74.0715C49.7524 73.995 49.9857 73.9165 50.2182 73.8338C50.2715 73.8155 50.3248 73.7935 50.3774 73.777C50.6346 73.6834 50.8913 73.587 51.1459 73.4849C51.1957 73.4628 51.2487 73.4401 51.302 73.4215C51.5269 73.33 51.7468 73.2367 51.967 73.1396C52.0116 73.1221 52.0554 73.1038 52.0968 73.0828C52.3476 72.9706 52.5956 72.8535 52.8415 72.7336C52.8916 72.7112 52.9449 72.6821 52.9951 72.6565C53.2224 72.5436 53.4486 72.4265 53.6724 72.3073C53.7043 72.2936 53.7229 72.2799 53.7464 72.267C53.9919 72.1355 54.2318 71.9981 54.4714 71.8589C54.5219 71.8319 54.5717 71.8 54.6194 71.7716C54.8527 71.6338 55.0831 71.4935 55.3107 71.3484V71.3351C55.5528 71.1805 55.7923 71.022 56.0287 70.8597C56.0691 70.8327 56.1027 70.8064 56.141 70.7804C56.3658 70.6241 56.5889 70.4656 56.8081 70.3022C56.8081 70.3022 56.8081 70.2886 56.8393 70.2886C57.0673 70.1189 57.2918 69.9436 57.5138 69.7662C57.5492 69.735 57.5846 69.7101 57.6204 69.6827C58.0634 69.3248 58.4938 68.9517 58.9115 68.5654C58.9428 68.5342 58.9733 68.5086 59.0031 68.4795C59.4194 68.0903 59.8217 67.6879 60.2103 67.271C60.2419 67.2398 60.2696 67.2079 60.2994 67.1767C60.6867 66.7577 61.0588 66.3265 61.4165 65.883C61.4478 65.8518 61.4698 65.8171 61.4965 65.7848C61.6764 65.559 61.8543 65.3301 62.0272 65.0976C62.1952 64.8691 62.3618 64.637 62.5246 64.4028C62.5561 64.3716 62.5698 64.3397 62.5891 64.3092C62.7522 64.0725 62.9107 63.832 63.0654 63.5897C63.0654 63.5764 63.0966 63.5582 63.0966 63.5452C63.2475 63.3089 63.3927 63.0691 63.5347 62.8279C63.5347 62.8054 63.5659 62.7834 63.5747 62.763C63.7227 62.5088 63.8669 62.2508 64.0079 61.9907C64.0079 61.977 64.0079 61.964 64.0394 61.9503C64.0707 61.9146 64.0798 61.8746 64.0984 61.8374L64.0672 61.8508C63.9788 61.882 63.8956 61.9177 63.8073 61.95C63.6413 62.0113 63.4768 62.0706 63.3109 62.1298C63.279 62.1435 63.2552 62.1519 63.2278 62.1611C63.1966 62.1744 63.1689 62.1835 63.1422 62.1923C63.0128 62.2375 62.8823 62.2806 62.7508 62.3227C62.7059 62.3363 62.6621 62.3546 62.6179 62.3675C62.4702 62.4163 62.3211 62.4605 62.1724 62.5064C62.1166 62.5243 62.0602 62.5379 62.0009 62.5565C61.8536 62.6014 61.7059 62.6424 61.5589 62.6831C61.5116 62.6968 61.4614 62.7097 61.4113 62.7234C61.2577 62.7683 61.104 62.8072 60.949 62.8451C60.8957 62.8587 60.8455 62.8721 60.7922 62.8854C60.6414 62.9208 60.4878 62.9587 60.3352 62.9937C60.1223 63.0414 59.9118 63.0884 59.6979 63.1315C59.2545 63.2206 58.808 63.2987 58.3569 63.3664C58.1503 63.3973 57.9444 63.4257 57.7375 63.4506C57.6926 63.4642 57.6452 63.4642 57.6011 63.4642C57.4204 63.487 57.2391 63.5091 57.0567 63.5245C56.8382 63.5473 56.6186 63.5648 56.3983 63.5827C56.3299 63.5964 56.2619 63.5964 56.1974 63.5964C56.0907 63.6094 55.9845 63.6094 55.8775 63.6185C55.8242 63.6185 55.7712 63.6322 55.7179 63.6322C55.263 63.6542 54.8052 63.6679 54.3447 63.6679V63.6812C52.679 63.6812 51.048 63.5291 49.4643 63.2402C49.4324 63.2402 49.4324 63.2265 49.4163 63.2265C47.5973 62.8917 45.8415 62.3732 44.1673 61.6934C43.9134 61.591 43.6615 61.4841 43.4114 61.3733C43.3557 61.3512 43.2995 61.3235 43.2431 61.2989C42.9867 61.1829 42.7292 61.0633 42.4756 60.9392C38.8271 59.1568 35.6367 56.5796 33.1283 53.4347L33.1414 53.4439Z" fill="#8FDCB7"/>
</svg>
