<svg width="1234" height="1042" viewBox="0 0 1234 1042" fill="none" xmlns="http://www.w3.org/2000/svg">
<path d="M0 190.735C0 163.121 22.3858 140.735 50 140.735H1184C1211.61 140.735 1234 163.121 1234 190.735V850.735C1234 878.349 1211.61 900.735 1184 900.735H50C22.3858 900.735 0 878.349 0 850.735V190.735Z" fill="#B1DFC9"/>
<path fill-rule="evenodd" clip-rule="evenodd" d="M409.475 207.281C409.475 161.376 416.673 117.238 429.974 75.885C475.014 59.785 523.578 51 574.291 51C776.628 51 946.222 191.189 991.242 379.736C943.024 363.45 891.373 354.621 837.659 354.621C711.165 354.621 596.106 403.586 510.404 483.596C447.43 408.981 409.475 312.564 409.475 207.281ZM474.856 520.506C402.332 436.468 358.475 326.996 358.475 207.281C358.475 147.25 369.503 89.7937 389.644 36.829C446.479 13.1032 508.855 0 574.291 0C839.199 0 1053.95 214.751 1053.95 479.659C1053.95 494.465 1053.28 509.114 1051.97 523.578C1052.97 536.221 1053.48 549.002 1053.48 561.902C1053.48 826.811 838.724 1041.56 573.816 1041.56C508.379 1041.56 446.004 1028.46 389.169 1004.73C369.028 951.768 358 894.312 358 834.28C358 714.304 402.049 604.616 474.856 520.506ZM990.683 662.174C945.538 850.545 776.028 990.561 573.816 990.561C523.103 990.561 474.539 981.776 429.499 965.676C416.198 924.323 409 880.186 409 834.28C409 728.764 447.124 632.153 510.349 557.469C596.106 637.773 711.378 686.941 838.134 686.941C891.465 686.941 942.762 678.237 990.683 662.174ZM1000.76 523.28C997.701 553.61 991.483 582.975 982.451 611.056C937.411 627.156 888.847 635.941 838.134 635.941C725.026 635.941 622.15 592.133 545.547 520.559C622.1 449.248 724.785 405.621 837.659 405.621C888.372 405.621 936.936 414.406 981.976 430.506C991.503 460.126 997.899 491.176 1000.76 523.28Z" fill="#9BDBBE"/>
</svg>
