<svg width="62" height="62" viewBox="0 0 62 62" fill="none" xmlns="http://www.w3.org/2000/svg">
<g style="mix-blend-mode:multiply">
<rect x="0.742188" y="0.0761719" width="61" height="61" rx="15" fill="#BBDCFD"/>
</g>
<path d="M30.5762 21.2428H21.1095C18.5762 21.2428 16.5762 23.2428 16.5762 25.7761V34.8428C16.5762 37.3761 18.5762 39.3761 21.1095 39.3761H30.5762C33.1095 39.3761 35.1095 37.3761 35.1095 34.8428V25.7761C35.2428 23.2428 33.1095 21.2428 30.5762 21.2428Z" fill="#1F8FFF"/>
<path d="M44.577 23.1095C43.6436 22.5761 42.4436 22.5761 41.5103 23.1095L41.377 23.2428L37.9103 25.6428C37.5103 25.9095 37.377 26.3095 37.377 26.7095V34.1761C37.377 34.5761 37.6436 34.9761 37.9103 35.2428L41.2436 37.6428L41.377 37.7761C41.777 38.0428 42.3103 38.1761 42.8436 38.1761C43.377 38.1761 44.0436 38.0428 44.4436 37.7761C45.2436 37.2428 45.777 36.3095 45.777 35.3761V25.5095C45.9103 24.5761 45.377 23.6428 44.577 23.1095Z" fill="#1F8FFF"/>
</svg>
