<svg width="164" height="41" viewBox="0 0 164 41" fill="none" xmlns="http://www.w3.org/2000/svg">
<path d="M18.6483 9.37096V33.7749H14.7015V31.5055C14.0218 32.3387 13.1777 32.9636 12.1691 33.3802C11.1824 33.7968 10.0861 34.0051 8.88013 34.0051C7.19181 34.0051 5.66793 33.6323 4.30851 32.8868C2.97101 32.1414 1.91855 31.0889 1.15113 29.7295C0.383709 28.3481 0 26.7694 0 24.9934C0 23.2174 0.383709 21.6496 1.15113 20.2902C1.91855 18.9308 2.97101 17.8783 4.30851 17.1328C5.66793 16.3874 7.19181 16.0146 8.88013 16.0146C10.0422 16.0146 11.1056 16.2119 12.0704 16.6066C13.0351 17.0013 13.8574 17.5933 14.5371 18.3826V9.37096H18.6483ZM9.37346 30.4859C10.3601 30.4859 11.2482 30.2667 12.0375 29.8281C12.8268 29.3677 13.4517 28.7209 13.9122 27.8877C14.3726 27.0545 14.6029 26.0897 14.6029 24.9934C14.6029 23.8971 14.3726 22.9323 13.9122 22.0991C13.4517 21.2659 12.8268 20.6301 12.0375 20.1916C11.2482 19.7311 10.3601 19.5009 9.37346 19.5009C8.38678 19.5009 7.49877 19.7311 6.70943 20.1916C5.92008 20.6301 5.29519 21.2659 4.83473 22.0991C4.37428 22.9323 4.14406 23.8971 4.14406 24.9934C4.14406 26.0897 4.37428 27.0545 4.83473 27.8877C5.29519 28.7209 5.92008 29.3677 6.70943 29.8281C7.49877 30.2667 8.38678 30.4859 9.37346 30.4859Z" fill="#242D3C"/>
<path d="M31.0648 30.5188C32.9723 30.5188 34.562 29.883 35.8337 28.6112L38.0044 31.1437C37.237 32.0865 36.2503 32.7991 35.0444 33.2815C33.8384 33.7639 32.479 34.0051 30.9661 34.0051C29.0366 34.0051 27.3373 33.6214 25.8682 32.854C24.3992 32.0865 23.259 31.0231 22.4478 29.6637C21.6584 28.2823 21.2637 26.7256 21.2637 24.9934C21.2637 23.2832 21.6474 21.7483 22.4149 20.3889C23.2042 19.0075 24.2786 17.9332 25.638 17.1657C27.0194 16.3983 28.5761 16.0146 30.3083 16.0146C31.9528 16.0146 33.4438 16.3764 34.7813 17.1C36.1407 17.8016 37.2151 18.8212 38.0044 20.1587C38.7938 21.4742 39.1884 23.02 39.1884 24.7961L25.7367 27.4272C26.1533 28.4358 26.822 29.2032 27.7429 29.7295C28.6638 30.2557 29.7711 30.5188 31.0648 30.5188ZM30.3083 19.3035C28.7954 19.3035 27.5675 19.7969 26.6247 20.7836C25.7038 21.7702 25.2433 23.0968 25.2433 24.7632V24.7961L35.1759 22.8885C34.8909 21.8141 34.3098 20.948 33.4328 20.2902C32.5777 19.6324 31.5362 19.3035 30.3083 19.3035Z" fill="#242D3C"/>
<path d="M57.9462 16.2119L50.4145 33.7749H46.1718L38.6401 16.2119H42.9157L48.3754 29.2361L53.9994 16.2119H57.9462Z" fill="#242D3C"/>
<path d="M67.0722 30.5188C68.9798 30.5188 70.5694 29.883 71.8411 28.6112L74.0118 31.1437C73.2444 32.0865 72.2577 32.7991 71.0518 33.2815C69.8458 33.7639 68.4864 34.0051 66.9735 34.0051C65.044 34.0051 63.3447 33.6214 61.8757 32.854C60.4066 32.0865 59.2664 31.0231 58.4552 29.6637C57.6658 28.2823 57.2712 26.7256 57.2712 24.9934C57.2712 23.2832 57.6549 21.7483 58.4223 20.3889C59.2116 19.0075 60.286 17.9332 61.6454 17.1657C63.0268 16.3983 64.5836 16.0146 66.3157 16.0146C67.9602 16.0146 69.4512 16.3764 70.7887 17.1C72.1481 17.8016 73.2225 18.8212 74.0118 20.1587C74.8012 21.4742 75.1958 23.02 75.1958 24.7961L61.7441 27.4272C62.1607 28.4358 62.8295 29.2032 63.7504 29.7295C64.6713 30.2557 65.7785 30.5188 67.0722 30.5188ZM66.3157 19.3035C64.8028 19.3035 63.5749 19.7969 62.6321 20.7836C61.7112 21.7702 61.2508 23.0968 61.2508 24.7632V24.7961L71.1833 22.8885C70.8983 21.8141 70.3173 20.948 69.4402 20.2902C68.5851 19.6324 67.5436 19.3035 66.3157 19.3035Z" fill="#242D3C"/>
<path d="M83.6186 34.0051C81.7987 34.0051 80.3735 33.5117 79.343 32.5251C78.3344 31.5165 77.8301 30.1022 77.8301 28.2823V9.37096H81.9413V27.9863C81.9413 29.7404 82.7635 30.6175 84.408 30.6175C84.9561 30.6175 85.4494 30.5078 85.888 30.2886L86.0853 33.5775C85.3179 33.8626 84.4957 34.0051 83.6186 34.0051Z" fill="#242D3C"/>
<path d="M95.1355 34.0051C93.3595 34.0051 91.7589 33.6214 90.3337 32.854C88.9085 32.0865 87.7902 31.0231 86.979 29.6637C86.1896 28.2823 85.795 26.7256 85.795 24.9934C85.795 23.2612 86.1896 21.7154 86.979 20.356C87.7902 18.9966 88.9085 17.9332 90.3337 17.1657C91.7589 16.3983 93.3595 16.0146 95.1355 16.0146C96.9335 16.0146 98.5451 16.3983 99.9703 17.1657C101.395 17.9332 102.503 18.9966 103.292 20.356C104.103 21.7154 104.509 23.2612 104.509 24.9934C104.509 26.7256 104.103 28.2823 103.292 29.6637C102.503 31.0231 101.395 32.0865 99.9703 32.854C98.5451 33.6214 96.9335 34.0051 95.1355 34.0051ZM95.1355 30.4859C96.6485 30.4859 97.8982 29.9816 98.8849 28.973C99.8716 27.9644 100.365 26.6379 100.365 24.9934C100.365 23.3489 99.8716 22.0224 98.8849 21.0138C97.8982 20.0052 96.6485 19.5009 95.1355 19.5009C93.6226 19.5009 92.3728 20.0052 91.3861 21.0138C90.4214 22.0224 89.939 23.3489 89.939 24.9934C89.939 26.6379 90.4214 27.9644 91.3861 28.973C92.3728 29.9816 93.6226 30.4859 95.1355 30.4859Z" fill="#242D3C"/>
<path d="M116.86 16.0146C118.57 16.0146 120.094 16.3874 121.432 17.1328C122.791 17.8783 123.854 18.9308 124.622 20.2902C125.389 21.6496 125.773 23.2174 125.773 24.9934C125.773 26.7694 125.389 28.3481 124.622 29.7295C123.854 31.0889 122.791 32.1414 121.432 32.8868C120.094 33.6323 118.57 34.0051 116.86 34.0051C114.492 34.0051 112.617 33.2157 111.236 31.6371V40.1554H107.125V16.2119H111.039V18.5142C111.718 17.681 112.551 17.0561 113.538 16.6395C114.547 16.2229 115.654 16.0146 116.86 16.0146ZM116.4 30.4859C117.912 30.4859 119.151 29.9816 120.116 28.973C121.103 27.9644 121.596 26.6379 121.596 24.9934C121.596 23.3489 121.103 22.0224 120.116 21.0138C119.151 20.0052 117.912 19.5009 116.4 19.5009C115.413 19.5009 114.525 19.7311 113.735 20.1916C112.946 20.6301 112.321 21.2659 111.861 22.0991C111.4 22.9323 111.17 23.8971 111.17 24.9934C111.17 26.0897 111.4 27.0545 111.861 27.8877C112.321 28.7209 112.946 29.3677 113.735 29.8281C114.525 30.2667 115.413 30.4859 116.4 30.4859Z" fill="#242D3C"/>
<path d="M134.145 34.0051C132.325 34.0051 130.9 33.5117 129.869 32.5251C128.861 31.5165 128.356 30.1022 128.356 28.2823V9.37096H132.468V27.9863C132.468 29.7404 133.29 30.6175 134.934 30.6175C135.482 30.6175 135.976 30.5078 136.414 30.2886L136.612 33.5775C135.844 33.8626 135.022 34.0051 134.145 34.0051Z" fill="#242D3C"/>
<path d="M138.09 16.2119H142.201V33.7749H138.09V16.2119ZM140.162 13.3177C139.416 13.3177 138.791 13.0875 138.287 12.627C137.783 12.1446 137.53 11.5526 137.53 10.851C137.53 10.1493 137.783 9.56829 138.287 9.10784C138.791 8.62547 139.416 8.38428 140.162 8.38428C140.907 8.38428 141.532 8.6145 142.036 9.07495C142.541 9.51348 142.793 10.0726 142.793 10.7523C142.793 11.4759 142.541 12.0898 142.036 12.5941C141.554 13.0765 140.929 13.3177 140.162 13.3177Z" fill="#242D3C"/>
<path d="M157.599 0.158127V0.159779C157.934 0.159779 158.267 0.171519 158.596 0.197019C158.702 0.204174 158.809 0.21353 158.915 0.22472C159.053 0.238846 159.189 0.254806 159.325 0.272966C159.401 0.282322 159.475 0.294063 159.55 0.304153H159.566C159.623 0.311124 159.68 0.322682 159.738 0.331671C159.776 0.338825 159.815 0.343595 159.852 0.350383C159.968 0.37148 160.085 0.392394 160.201 0.415325C160.362 0.447979 160.521 0.483751 160.68 0.521909C160.696 0.526495 160.716 0.52888 160.732 0.533466C160.759 0.540437 160.783 0.545207 160.808 0.552361L160.824 0.556764C161.02 0.606297 161.214 0.66023 161.407 0.718202C161.479 0.739299 161.551 0.762781 161.623 0.785346C161.68 0.804058 161.736 0.822403 161.793 0.841665C161.835 0.855607 161.878 0.86955 161.92 0.884592C161.936 0.888995 161.946 0.893765 161.96 0.898535C161.976 0.903121 161.991 0.910276 162.006 0.914679C162.071 0.938161 162.137 0.961642 162.202 0.985674C162.218 0.990443 162.23 0.997415 162.244 1.002C162.271 1.01393 162.299 1.02328 162.327 1.03521C162.379 1.0563 162.432 1.07538 162.485 1.0963C162.778 1.82625 163.006 2.58847 163.165 3.37587C163.335 4.21699 163.424 5.08619 163.424 5.97611C163.051 11.5592 160.324 15.9737 155.476 18.4055C155.343 18.4703 155.209 18.5328 155.074 18.5936C155.045 18.6055 155.015 18.6194 154.986 18.6321C154.855 18.6899 154.723 18.7458 154.591 18.7998C153.715 19.1555 152.796 19.4263 151.843 19.6016C151.827 19.6016 151.827 19.6088 151.819 19.6088C150.99 19.7598 150.137 19.8392 149.265 19.8392V19.832C149.024 19.832 148.784 19.8251 148.546 19.8133C148.518 19.8133 148.491 19.8063 148.463 19.8063C148.407 19.7992 148.352 19.7992 148.296 19.7948C148.26 19.7948 148.226 19.7948 148.191 19.7876C148.075 19.7781 147.96 19.7689 147.846 19.7572C147.75 19.7476 147.656 19.7361 147.561 19.7256C147.538 19.7185 147.513 19.7185 147.49 19.7185C147.382 19.7045 147.273 19.6893 147.165 19.6735C146.929 19.6379 146.696 19.5974 146.464 19.551C146.353 19.5275 146.241 19.5044 146.13 19.4794C146.073 19.4675 146.018 19.453 145.961 19.4389C145.902 19.3268 145.843 19.2144 145.787 19.1004C145.787 19.0933 145.771 19.0839 145.771 19.0742C145.703 18.9359 145.637 18.7959 145.575 18.6548C145.575 18.6431 145.558 18.6286 145.558 18.6157C145.499 18.4842 145.444 18.3519 145.39 18.218C145.39 18.2088 145.39 18.2017 145.373 18.192C145.081 17.462 144.852 16.7001 144.694 15.913C144.694 15.8966 144.694 15.8779 144.677 15.8609C144.661 15.8196 144.661 15.7779 144.654 15.7367C144.638 15.6765 144.63 15.6163 144.621 15.556C144.605 15.5097 144.605 15.4648 144.6 15.4189C144.584 15.3582 144.579 15.2978 144.571 15.2368C144.571 15.1993 144.555 15.1617 144.555 15.1245C144.538 15.0555 144.534 14.9876 144.527 14.9185C144.527 14.8906 144.527 14.862 144.51 14.8339C144.494 14.7528 144.492 14.6719 144.484 14.5903V14.5666C144.445 14.1537 144.424 13.7356 144.424 13.3127C144.424 12.4224 144.514 11.553 144.683 10.7121C144.683 10.68 144.699 10.6484 144.704 10.6169C144.704 10.593 144.72 10.5696 144.72 10.5459C144.72 10.5142 144.737 10.4808 144.742 10.4483C144.758 10.4057 144.762 10.3628 144.771 10.3206C144.787 10.2625 144.797 10.2045 144.812 10.1469C144.829 10.1062 144.833 10.0649 144.843 10.024C144.843 10.01 144.843 9.99555 144.86 9.98105C144.883 9.89318 144.906 9.80567 144.931 9.71854C144.947 9.66864 144.959 9.61782 144.974 9.56811C144.991 9.52023 145.004 9.4729 145.019 9.42538C145.019 9.4063 145.035 9.3874 145.035 9.36833C145.063 9.28064 145.091 9.19331 145.12 9.10691C145.137 9.07059 145.144 9.03426 145.157 8.99776C145.224 8.80733 145.293 8.61893 145.368 8.43273V8.42797C145.385 8.401 145.392 8.37367 145.404 8.34633C145.578 7.92127 145.772 7.50685 145.988 7.10508C146.062 6.96547 146.141 6.82751 146.22 6.69103C147.286 4.86935 148.776 3.32561 150.556 2.19665C150.673 2.12217 150.791 2.05007 150.91 1.97981C150.932 1.96806 150.954 1.95394 150.975 1.94128C151.026 1.91211 151.077 1.88367 151.13 1.85469C151.206 1.81158 151.281 1.76736 151.359 1.72554C151.376 1.71838 151.39 1.70921 151.406 1.70114C151.521 1.63913 151.64 1.57878 151.758 1.51989C151.783 1.50833 151.808 1.49567 151.831 1.48393C151.862 1.4676 151.895 1.45476 151.925 1.43972C152.026 1.39184 152.125 1.34341 152.227 1.29828C152.246 1.29112 152.264 1.28158 152.284 1.27315C152.406 1.21958 152.528 1.16784 152.651 1.11758C154.177 0.497892 155.845 0.155762 157.591 0.155762L157.599 0.158127ZM140.084 7.73431C141.71 7.73431 143.055 9.0779 143.055 10.7038C143.055 12.3299 141.71 13.6733 140.084 13.6733C138.457 13.6733 137.112 12.3299 137.112 10.7038C137.112 9.0779 138.457 7.73431 140.084 7.73431ZM162.154 15.0428C162.962 16.7454 163.416 18.6471 163.416 20.654C163.416 21.5441 163.326 22.4137 163.157 23.2545C162.999 24.0419 162.77 24.8035 162.477 25.5337C162.397 25.5658 162.316 25.5969 162.235 25.6274C162.15 25.6595 162.065 25.6907 161.979 25.7206C161.979 25.7277 161.963 25.7277 161.956 25.7277C161.939 25.7347 161.925 25.7395 161.909 25.7441C161.832 25.7703 161.756 25.7965 161.678 25.822C161.657 25.8292 161.638 25.836 161.618 25.8431C161.564 25.8595 161.51 25.8771 161.456 25.8934C161.435 25.9006 161.416 25.9051 161.396 25.9123C161.219 25.9655 161.041 26.0147 160.862 26.0607C160.843 26.0677 160.825 26.0699 160.806 26.0747C160.783 26.0816 160.758 26.0864 160.734 26.0912C160.658 26.1099 160.584 26.1271 160.508 26.1447C160.405 26.1682 160.303 26.1906 160.2 26.2108C159.411 26.3696 158.597 26.457 157.765 26.4672H157.599C157.496 26.4672 157.394 26.4672 157.292 26.4601H157.203C157.128 26.4601 157.051 26.4533 156.975 26.4509C156.947 26.4509 156.919 26.4438 156.891 26.4438C156.8 26.437 156.708 26.4322 156.616 26.4274H156.582C156.484 26.4205 156.386 26.4109 156.288 26.4012C156.257 26.394 156.226 26.394 156.195 26.392C156.119 26.3849 156.043 26.3755 155.967 26.3662C155.943 26.3592 155.918 26.3592 155.892 26.3568C155.813 26.3449 155.733 26.3357 155.654 26.3236C155.629 26.3166 155.605 26.3166 155.581 26.3119C155.486 26.2955 155.389 26.281 155.294 26.264C155.268 26.2568 155.241 26.2544 155.214 26.2473C155.144 26.2357 155.074 26.2216 155.006 26.2077C154.969 26.2005 154.931 26.1913 154.896 26.1842C154.825 26.168 154.754 26.1535 154.683 26.1378C154.661 26.1306 154.638 26.1282 154.616 26.1214C154.519 26.098 154.422 26.075 154.326 26.0504C154.307 26.0433 154.29 26.0409 154.272 26.0361C154.205 26.0198 154.137 26.0007 154.071 25.982C153.929 25.9428 153.789 25.9013 153.649 25.8571C153.628 25.8503 153.608 25.8431 153.586 25.8363C153.462 25.7964 153.34 25.7553 153.219 25.712C153.191 25.7024 153.163 25.6909 153.135 25.6823C153.001 25.6333 152.866 25.5828 152.733 25.5294C152.707 25.5179 152.679 25.506 152.651 25.4962C152.534 25.4484 152.419 25.3996 152.303 25.3487C152.28 25.3396 152.257 25.33 152.236 25.319C152.104 25.2603 151.975 25.199 151.846 25.1363C151.82 25.1246 151.792 25.1093 151.766 25.0959C151.647 25.0369 151.528 24.9756 151.411 24.9132C151.394 24.9061 151.385 24.8989 151.372 24.8921C151.244 24.8233 151.118 24.7514 150.993 24.6786C150.967 24.6645 150.941 24.6478 150.916 24.6329C150.794 24.5608 150.673 24.4874 150.554 24.4115V24.4045C150.427 24.3236 150.302 24.2407 150.178 24.1558C150.157 24.1416 150.139 24.1279 150.119 24.1143C150.002 24.0325 149.885 23.9496 149.77 23.8641C149.77 23.8641 149.77 23.8569 149.754 23.8569C149.635 23.7681 149.517 23.6764 149.401 23.5836C149.383 23.5672 149.364 23.5542 149.345 23.5399C149.113 23.3526 148.888 23.1574 148.67 22.9553C148.653 22.9389 148.637 22.9255 148.622 22.9103C148.404 22.7067 148.193 22.4961 147.99 22.2779C147.974 22.2616 147.959 22.2449 147.943 22.2286C147.741 22.0094 147.546 21.7837 147.359 21.5517C147.343 21.5353 147.331 21.5172 147.317 21.5003C147.223 21.3822 147.13 21.2624 147.039 21.1407C146.951 21.0211 146.864 20.8997 146.779 20.7771C146.763 20.7608 146.755 20.7441 146.745 20.7281C146.66 20.6043 146.577 20.4785 146.496 20.3517C146.496 20.3447 146.48 20.3352 146.48 20.3284C146.401 20.2048 146.325 20.0793 146.251 19.9531C146.251 19.9413 146.234 19.9298 146.23 19.9191C146.152 19.7861 146.077 19.6511 146.003 19.515C146.003 19.5078 146.003 19.501 145.986 19.4939C145.97 19.4752 145.965 19.4543 145.956 19.4348L145.972 19.4418C146.018 19.4581 146.062 19.4768 146.108 19.4937C146.195 19.5258 146.281 19.5568 146.368 19.5878C146.384 19.595 146.397 19.5994 146.411 19.6041C146.428 19.6111 146.442 19.6159 146.456 19.6205C146.524 19.6441 146.592 19.6667 146.661 19.6887C146.684 19.6959 146.707 19.7054 146.73 19.7122C146.808 19.7377 146.886 19.7608 146.963 19.7848C146.993 19.7942 147.022 19.8013 147.053 19.8111C147.13 19.8345 147.208 19.856 147.284 19.8773C147.309 19.8844 147.335 19.8912 147.362 19.8984C147.442 19.9219 147.522 19.9422 147.604 19.9621C147.631 19.9692 147.658 19.9762 147.686 19.9831C147.765 20.0017 147.845 20.0215 147.925 20.0398C148.036 20.0648 148.146 20.0894 148.258 20.1119C148.49 20.1585 148.724 20.1994 148.96 20.2348C149.068 20.251 149.176 20.2658 149.284 20.2789C149.308 20.286 149.332 20.286 149.355 20.286C149.45 20.298 149.545 20.3095 149.64 20.3176C149.755 20.3295 149.869 20.3387 149.985 20.348C150.021 20.3552 150.056 20.3552 150.09 20.3552C150.146 20.362 150.201 20.362 150.257 20.3667C150.285 20.3667 150.313 20.3739 150.341 20.3739C150.579 20.3855 150.818 20.3926 151.059 20.3926V20.3996C151.931 20.3996 152.784 20.32 153.613 20.1688C153.63 20.1688 153.63 20.1616 153.638 20.1616C154.59 19.9864 155.509 19.7151 156.385 19.3594C156.518 19.3058 156.649 19.2499 156.78 19.1919C156.809 19.1804 156.839 19.1659 156.868 19.153C157.003 19.0923 157.137 19.0298 157.27 18.9648C159.179 18.0322 160.848 16.6836 162.161 15.038L162.154 15.0428Z" fill="#58C791"/>
</svg>
