<svg width="709" height="755" viewBox="0 0 709 755" fill="none" xmlns="http://www.w3.org/2000/svg">
<path d="M168.193 160.757C168.193 119.398 133.873 85.0771 92.5133 85.0771C51.15 85.0771 16.839 119.396 16.839 160.757C16.839 202.122 51.1481 236.432 92.5133 236.432C133.875 236.432 168.193 202.12 168.193 160.757Z" fill="url(#paint0_linear_15596_7214)" stroke="url(#paint1_linear_15596_7214)" stroke-width="32"/>
<mask id="path-2-inside-1_15596_7214" fill="white">
<path fill-rule="evenodd" clip-rule="evenodd" d="M684.689 28.4068C641.314 10.2999 593.711 0.299805 543.771 0.299805C341.599 0.299805 177.707 164.193 177.707 366.364C177.707 412.179 186.123 456.028 201.494 496.45C244.869 514.557 292.473 524.557 342.412 524.557C544.584 524.557 708.477 360.664 708.477 158.492C708.477 112.677 700.06 68.8282 684.689 28.4068Z"/>
</mask>
<path fill-rule="evenodd" clip-rule="evenodd" d="M684.689 28.4068C641.314 10.2999 593.711 0.299805 543.771 0.299805C341.599 0.299805 177.707 164.193 177.707 366.364C177.707 412.179 186.123 456.028 201.494 496.45C244.869 514.557 292.473 524.557 342.412 524.557C544.584 524.557 708.477 360.664 708.477 158.492C708.477 112.677 700.06 68.8282 684.689 28.4068Z" fill="url(#paint2_linear_15596_7214)"/>
<path d="M684.689 28.4068L704.336 -18.657L724.567 -10.2117L732.359 10.2794L684.689 28.4068ZM201.494 496.45L181.847 543.513L161.617 535.068L153.825 514.577L201.494 496.45ZM665.042 75.4706C627.781 59.9159 586.847 51.2998 543.771 51.2998V-50.7002C600.574 -50.7002 654.847 -39.3161 704.336 -18.657L665.042 75.4706ZM543.771 51.2998C369.766 51.2998 228.707 192.359 228.707 366.364H126.707C126.707 136.026 313.433 -50.7002 543.771 -50.7002V51.2998ZM228.707 366.364C228.707 405.889 235.96 443.601 249.164 478.322L153.825 514.577C136.286 468.455 126.707 418.469 126.707 366.364H228.707ZM221.141 449.386C258.402 464.941 299.336 473.557 342.412 473.557V575.557C285.609 575.557 231.336 564.172 181.847 543.513L221.141 449.386ZM342.412 473.557C516.417 473.557 657.477 332.497 657.477 158.492H759.477C759.477 388.83 572.75 575.557 342.412 575.557V473.557ZM657.477 158.492C657.477 118.967 650.223 81.2554 637.019 46.5342L732.359 10.2794C749.897 56.401 759.477 106.387 759.477 158.492H657.477Z" fill="url(#paint3_linear_15596_7214)" mask="url(#path-2-inside-1_15596_7214)"/>
<g style="mix-blend-mode:darken">
<mask id="path-4-inside-2_15596_7214" fill="white">
<path fill-rule="evenodd" clip-rule="evenodd" d="M201.495 258.539C244.869 240.432 292.473 230.432 342.412 230.432C544.584 230.432 708.477 394.324 708.477 596.496C708.477 642.311 700.06 686.16 684.689 726.581C641.315 744.688 593.711 754.688 543.772 754.688C341.6 754.688 177.707 590.796 177.707 388.624C177.707 342.809 186.123 298.96 201.495 258.539Z"/>
</mask>
<path fill-rule="evenodd" clip-rule="evenodd" d="M201.495 258.539C244.869 240.432 292.473 230.432 342.412 230.432C544.584 230.432 708.477 394.324 708.477 596.496C708.477 642.311 700.06 686.16 684.689 726.581C641.315 744.688 593.711 754.688 543.772 754.688C341.6 754.688 177.707 590.796 177.707 388.624C177.707 342.809 186.123 298.96 201.495 258.539Z" fill="url(#paint4_linear_15596_7214)"/>
<path d="M201.495 258.539L181.848 211.475L161.617 219.92L153.825 240.411L201.495 258.539ZM684.689 726.581L704.336 773.645L724.567 765.2L732.359 744.709L684.689 726.581ZM221.141 305.602C258.403 290.048 299.337 281.432 342.412 281.432V179.432C285.61 179.432 231.336 190.816 181.848 211.475L221.141 305.602ZM342.412 281.432C516.418 281.432 657.477 422.491 657.477 596.496H759.477C759.477 366.158 572.751 179.432 342.412 179.432V281.432ZM657.477 596.496C657.477 636.021 650.223 673.733 637.02 708.454L732.359 744.709C749.898 698.587 759.477 648.601 759.477 596.496H657.477ZM665.042 679.518C627.781 695.072 586.847 703.688 543.772 703.688V805.688C600.574 805.688 654.848 794.304 704.336 773.645L665.042 679.518ZM543.772 703.688C369.766 703.688 228.707 562.629 228.707 388.624H126.707C126.707 618.962 313.433 805.688 543.772 805.688V703.688ZM228.707 388.624C228.707 349.099 235.961 311.387 249.164 276.666L153.825 240.411C136.286 286.533 126.707 336.519 126.707 388.624H228.707Z" fill="url(#paint5_linear_15596_7214)" mask="url(#path-4-inside-2_15596_7214)"/>
</g>
<defs>
<linearGradient id="paint0_linear_15596_7214" x1="35" y1="80.5674" x2="184.193" y2="252.432" gradientUnits="userSpaceOnUse">
<stop stop-color="#FAEBDF"/>
<stop offset="1" stop-color="#DBF2D7"/>
</linearGradient>
<linearGradient id="paint1_linear_15596_7214" x1="169" y1="252.432" x2="-47" y2="34.5674" gradientUnits="userSpaceOnUse">
<stop stop-color="#DBF2D7"/>
<stop offset="1" stop-color="#FFD4AE"/>
</linearGradient>
<linearGradient id="paint2_linear_15596_7214" x1="697" y1="28.5676" x2="177.707" y2="494.568" gradientUnits="userSpaceOnUse">
<stop stop-color="#DBF2D7"/>
<stop offset="1" stop-color="#DBF2D7" stop-opacity="0"/>
</linearGradient>
<linearGradient id="paint3_linear_15596_7214" x1="695" y1="31.5676" x2="129" y2="441.568" gradientUnits="userSpaceOnUse">
<stop stop-color="#97DBB3" stop-opacity="0.16"/>
<stop offset="1" stop-color="#DDF0E7"/>
</linearGradient>
<linearGradient id="paint4_linear_15596_7214" x1="708.477" y1="712.568" x2="191" y2="278.568" gradientUnits="userSpaceOnUse">
<stop stop-color="#FDF3D0"/>
<stop offset="1" stop-color="#DBF2D7"/>
</linearGradient>
<linearGradient id="paint5_linear_15596_7214" x1="764.505" y1="790.61" x2="202.168" y2="260.519" gradientUnits="userSpaceOnUse">
<stop stop-color="#EEEFAD"/>
<stop offset="1" stop-color="#E0F0E9"/>
</linearGradient>
</defs>
</svg>
