<svg width="132" height="43" viewBox="0 0 132 43" fill="none" xmlns="http://www.w3.org/2000/svg">
<path d="M69.6655 10.9167C69.6655 12.4303 68.4786 13.6491 67.0056 13.6491C65.5326 13.6491 64.3465 12.4303 64.3465 10.9167C64.3465 9.40301 65.4921 8.18419 67.0056 8.18419C68.5203 8.22619 69.6655 9.44543 69.6655 10.9167ZM58.7006 16.4244V17.0973C58.7006 17.0973 57.4328 15.4148 54.7324 15.4148C50.2733 15.4148 46.7952 18.9045 46.7952 23.739C46.7952 28.532 50.2325 32.0632 54.7324 32.0632C57.4736 32.0632 58.7006 30.3396 58.7006 30.3396V31.054C58.7006 31.3904 58.9466 31.642 59.2736 31.642H62.587V15.8339H59.2736C58.9466 15.8352 58.7006 16.13 58.7006 16.4244ZM58.7006 26.5559C58.0875 27.4811 56.8597 28.28 55.3871 28.28C52.7689 28.28 50.7638 26.5983 50.7638 23.739C50.7638 20.8801 52.7689 19.1985 55.3871 19.1985C56.8193 19.1985 58.1284 20.0393 58.7006 20.9221V26.5559ZM65.0422 15.8352H68.9695V31.6432H65.0422V15.8352ZM123.711 15.4144C121.01 15.4144 119.742 17.0968 119.742 17.0968V8.22619H115.814V31.6432H119.129C119.456 31.6432 119.701 31.3488 119.701 31.0544V30.34C119.701 30.34 120.969 32.0637 123.669 32.0637C128.129 32.0637 131.606 28.5332 131.606 23.7403C131.606 18.9473 128.129 15.4144 123.711 15.4144ZM123.056 28.2375C121.542 28.2375 120.356 27.4396 119.742 26.5139V20.8801C120.356 20.0393 121.665 19.1565 123.056 19.1565C125.674 19.1565 127.679 20.8381 127.679 23.697C127.679 26.5559 125.675 28.2375 123.056 28.2375ZM113.769 22.2682V31.6853H109.841V22.7302C109.841 20.1241 109.023 19.0725 106.815 19.0725C105.629 19.0725 104.401 19.7033 103.622 20.6285V31.6437H99.696V15.8356H102.804C103.132 15.8356 103.377 16.13 103.377 16.4244V17.0973C104.523 15.8776 106.036 15.4148 107.55 15.4148C109.268 15.4148 110.701 15.92 111.846 16.9288C113.237 18.1061 113.769 19.6193 113.769 22.2682ZM90.162 15.4144C87.4624 15.4144 86.1938 17.0968 86.1938 17.0968V8.22619H82.2665V31.6432H85.5799C85.9073 31.6432 86.1529 31.3488 86.1529 31.0544V30.34C86.1529 30.34 87.4216 32.0637 90.1211 32.0637C94.581 32.0637 98.0583 28.5332 98.0583 23.7403C98.0992 18.9469 94.6219 15.4144 90.162 15.4144ZM89.5072 28.2375C87.9938 28.2375 86.8077 27.4396 86.1938 26.5139V20.8801C86.8077 20.0393 88.1168 19.1565 89.5072 19.1565C92.1263 19.1565 94.1306 20.8381 94.1306 23.697C94.1306 26.5559 92.1263 28.2375 89.5072 28.2375ZM78.8705 15.4144C80.0566 15.4144 80.6705 15.6252 80.6705 15.6252V19.3665C80.6705 19.3665 77.3975 18.2312 75.3523 20.6281V31.6848H71.4242V15.8352H74.7384C75.0658 15.8352 75.3106 16.1296 75.3106 16.424V17.0968C76.0479 16.2136 77.6436 15.4144 78.8705 15.4144ZM38.0815 30.2136C37.8771 29.7092 37.6723 29.1628 37.468 28.7C37.1402 27.9436 36.8128 27.2283 36.5271 26.5559L36.4863 26.5139C33.6629 20.2073 30.636 13.8175 27.4443 7.51179L27.3217 7.25895C26.986 6.6048 26.6589 5.94606 26.3404 5.28289C25.9309 4.52565 25.5222 3.72766 24.8674 2.97041C23.5583 1.28877 21.6762 0.363525 19.6718 0.363525C17.6258 0.363525 15.785 1.28877 14.4354 2.886C13.8216 3.64241 13.3712 4.44124 12.9624 5.19848C12.6431 5.86123 12.316 6.51996 11.9811 7.17454L11.8581 7.42737C8.70775 13.7331 5.63954 20.1233 2.81657 26.4295L2.7753 26.5131C2.4892 27.1867 2.16141 27.9011 1.83403 28.6571C1.62968 29.1199 1.42532 29.6244 1.22096 30.1708C0.688821 31.726 0.52492 33.1976 0.730093 34.7117C1.18008 37.865 3.22528 40.5126 6.04866 41.6907C7.11254 42.1535 8.21729 42.3635 9.3625 42.3635C9.68988 42.3635 10.0986 42.3215 10.4264 42.2791C11.7768 42.1111 13.1676 41.6491 14.518 40.8503C16.1954 39.8831 17.791 38.4963 19.5909 36.4782C21.3909 38.4963 23.0274 39.8831 24.6639 40.8503C26.0147 41.6491 27.4051 42.1111 28.7551 42.2791C29.0824 42.322 29.492 42.3635 29.8193 42.3635C30.965 42.3635 32.1102 42.1535 33.1328 41.6907C35.997 40.5126 38.0014 37.823 38.4518 34.7117C38.7767 33.2405 38.6132 31.7697 38.0815 30.2136ZM19.6306 32.3997C17.4211 29.5408 15.9889 26.8503 15.4985 24.5807C15.2941 23.6134 15.2529 22.7726 15.3759 22.0158C15.4572 21.343 15.7033 20.7541 16.0306 20.2497C16.808 19.1153 18.1171 18.4001 19.631 18.4001C21.1453 18.4001 22.4952 19.0729 23.2317 20.2497C23.5591 20.7541 23.8043 21.3434 23.8869 22.0158C24.0091 22.773 23.9682 23.6554 23.7639 24.5807C23.2714 26.8083 21.8393 29.4992 19.6306 32.3997ZM35.9537 34.3757C35.6676 36.5618 34.2355 38.4542 32.2312 39.2951C31.2494 39.7151 30.1851 39.8415 29.1221 39.7151C28.0995 39.5886 27.0761 39.2522 26.013 38.6222C24.54 37.7806 23.0674 36.4782 21.3488 34.5437C24.0488 31.1388 25.6852 28.0271 26.2991 25.2531C26.5856 23.9494 26.6269 22.7726 26.5035 21.6789C26.3404 20.6281 25.9717 19.6609 25.3991 18.8201C24.1301 16.9276 22.0023 15.8352 19.6302 15.8352C17.258 15.8352 15.1302 16.9704 13.862 18.8201C13.2894 19.6609 12.9207 20.6281 12.7573 21.6789C12.5938 22.7726 12.6342 23.9914 12.9616 25.2531C13.5751 28.0271 15.2525 31.1804 17.9115 34.5857C16.2342 36.5198 14.7203 37.8234 13.2473 38.6643C12.1834 39.2951 11.1612 39.6315 10.1386 39.7571C9.03431 39.8835 7.97002 39.7151 7.02917 39.3371C5.02485 38.4963 3.59272 36.6038 3.30662 34.4177C3.18401 33.3669 3.26534 32.3161 3.67487 31.1388C3.79707 30.718 4.00225 30.298 4.2066 29.7936C4.49311 29.1208 4.81967 28.4055 5.14746 27.6911L5.18874 27.6076C8.01131 21.343 11.0386 14.9528 14.189 8.73102L14.3116 8.47819C14.6394 7.8482 14.9668 7.17537 15.2937 6.54455C15.6211 5.87172 15.9889 5.24089 16.4393 4.69406C17.2985 3.68608 18.4437 3.13883 19.7123 3.13883C20.981 3.13883 22.1262 3.68608 22.9853 4.69406C23.4357 5.24215 23.8035 5.87298 24.1309 6.54455C24.4587 7.17537 24.7861 7.8482 25.1126 8.47819L25.2356 8.73102C28.338 14.9786 31.3251 21.2859 34.1954 27.6496V27.6916C34.5232 28.3652 34.8093 29.1212 35.1367 29.7949C35.341 30.2984 35.5458 30.7184 35.6684 31.1393C35.995 32.2313 36.1176 33.2829 35.9537 34.3757Z" fill="#2D2D2D"/>
</svg>
