<svg width="130" height="36" viewBox="0 0 130 36" fill="none" xmlns="http://www.w3.org/2000/svg">
<path fill-rule="evenodd" clip-rule="evenodd" d="M77.1265 28.2857C76.2627 28.9093 75.3337 29.471 74.4047 29.9704V27.3506C74.9347 27.1634 75.5329 26.9137 76.0641 26.727C77.2581 26.2277 78.3229 27.476 77.1253 28.2857H77.1265ZM83.4307 23.9177C83.4307 23.4183 83.2979 23.0438 83.1651 22.8572C82.5682 22.1706 78.1877 21.5464 74.4047 22.6069V24.5407C76.7275 24.354 79.448 24.291 80.1139 25.1007C81.0428 26.1612 79.0515 30.7777 78.1883 32.7739C77.9227 33.3981 78.5234 33.6489 79.1191 33.2114C82.1052 30.8407 83.3662 26.5357 83.4326 24.2893V23.9188L83.4307 23.9177ZM74.4047 29.9698C67.4359 33.9003 58.4093 35.9595 50.5779 35.9595C37.9675 35.9595 26.6846 31.5926 18.1228 24.2928C17.393 23.7316 17.99 22.9202 18.8532 23.3571C28.079 28.4088 39.4929 31.4655 51.3083 31.4672C58.7419 31.4672 66.7725 30.1576 74.4054 27.3494V29.9698H74.4047ZM74.4047 22.6052C73.3873 22.9018 72.4245 23.3439 71.5502 23.9159C70.8874 24.3523 71.0196 24.9134 71.6805 24.8516C72.4109 24.7268 73.3399 24.6643 74.4023 24.5395V22.6081L74.4047 22.6052Z" fill="black"/>
<path fill-rule="evenodd" clip-rule="evenodd" d="M96.769 21.6105V17.8672C99.6241 17.8048 99.7563 13.9366 99.7563 11.6284C99.7563 10.0685 99.6899 8.19661 99.1587 6.69918C98.7609 5.45142 97.9648 4.95208 96.7683 4.89025V1.14639C102.344 1.21055 105.4 5.76642 105.4 11.5648C105.399 17.1806 102.015 21.5498 96.7708 21.6105H96.769ZM112.765 21.2365H108.982C108.584 21.1741 108.252 20.9244 108.252 20.5499V2.14506C108.318 1.77056 108.584 1.52147 108.982 1.52147H112.566C112.898 1.52147 113.162 1.77231 113.23 2.08264V4.89025H113.297C114.358 2.33231 115.885 1.14639 118.539 1.14639C120.199 1.14639 121.921 1.70639 122.989 3.3304C123.984 4.82958 123.982 7.2621 123.982 9.07045V20.6124C123.916 20.9239 123.65 21.236 123.252 21.236H119.403C119.071 21.1735 118.739 20.9239 118.739 20.6124V10.6927C118.739 8.63352 119.005 5.70167 116.349 5.70167C115.42 5.70167 114.557 6.26284 114.093 7.19851C113.562 8.32144 113.495 9.44495 113.495 10.6921V20.5494C113.495 20.9256 113.166 21.2348 112.763 21.2365H112.765ZM71.8816 4.76541V2.14506C71.8816 1.77056 72.2136 1.45905 72.612 1.45905H85.1559C85.5543 1.45905 85.8881 1.76822 85.8881 2.14506V4.39149C85.8881 4.76541 85.5568 5.26475 84.9592 6.07617L78.452 14.8099C80.8418 14.7481 83.4289 15.1249 85.6194 16.2455C86.0836 16.5547 86.2152 16.9338 86.2834 17.3054V20.0506C86.2834 20.4245 85.8193 20.862 85.3545 20.6742C81.4381 18.7404 76.3285 18.5526 72.0801 20.6742C71.616 20.9239 71.1512 20.4239 71.1512 20.0506V17.4303C71.1512 17.0558 71.1512 16.3067 71.616 15.6207L79.1818 5.45083H72.6113C72.2136 5.44967 71.8803 5.20467 71.8803 4.76541H71.8816ZM96.7683 1.14639V4.89025C93.9157 4.89025 93.7829 8.50869 93.7829 10.7551C93.7829 13.0634 93.7171 17.866 96.7057 17.8672H96.7677V21.6105H96.7026C91.1275 21.6105 88.075 17.0558 88.075 11.3787C88.075 5.63867 91.1933 1.14639 96.7026 1.14639C96.769 1.14464 96.7708 1.14464 96.7708 1.14639H96.7683ZM59.0056 21.1735V17.8672C59.8682 17.6799 60.5986 17.1182 61.1292 16.2455C61.8596 14.9972 61.8596 13.8748 61.8596 12.4398V11.6914C60.8642 11.6914 59.8682 11.7532 59.0056 11.9411V9.07103C60.001 8.94561 60.9964 8.88378 61.8596 8.82136V8.32202C61.8596 7.44877 61.9254 6.45067 61.3948 5.70225C60.93 5.07808 60.001 4.766 59.2048 4.766H59.0056V0.960301H59.7999C61.6579 0.960301 64.0446 1.46197 65.5091 2.76981C67.367 4.39149 67.2342 6.57318 67.2342 8.94561V14.5614C67.2342 16.2472 67.9665 16.9939 68.6305 17.8689C68.8967 18.1781 68.9656 18.5573 68.6305 18.8046C67.9007 19.4288 66.5063 20.5517 65.7101 21.1753C65.4445 21.3625 65.1132 21.3625 64.7818 21.2395C63.5202 20.2414 63.321 19.8044 62.5918 18.8688C61.329 20.1148 60.2635 20.7973 59.0038 21.1735H59.0056ZM59.0056 0.959717V4.766C57.6112 4.89083 56.4837 5.57683 56.1511 6.94943C56.0853 7.26151 55.8191 7.57302 55.4877 7.63602L51.7706 7.1991C51.4386 7.13668 51.1072 6.94943 51.24 6.45009C52.0368 2.52131 55.5535 1.14463 59.0038 0.959717H59.0056ZM59.0056 9.07103V11.9405C57.4127 12.3768 56.1511 13.3125 56.1511 15.3063C56.1511 16.8638 57.0136 17.9255 58.472 17.9267C58.6712 17.9267 58.8046 17.8648 59.0032 17.8648V21.1712C58.1136 21.3821 57.1995 21.488 56.282 21.4862C53.0961 21.4862 50.5741 19.6149 50.5741 15.9328C50.5741 13.001 52.2335 11.0042 54.6227 10.0685C55.8867 9.50386 57.4772 9.25886 59.0038 9.07045L59.0056 9.07103ZM8.82932 21.1735V17.8672C9.69313 17.6799 10.4893 17.1182 10.9541 16.2455C11.7497 14.9972 11.6839 13.8748 11.6839 12.4398V11.6914C10.6885 11.6914 9.69313 11.7532 8.82932 11.9411V9.07103C9.82531 8.94561 10.8207 8.88378 11.6839 8.82136V8.32202C11.6839 7.44877 11.7497 6.45067 11.2197 5.70225C10.7549 5.07808 9.89171 4.766 9.09553 4.766H8.82932V0.960301H9.62363C11.4822 0.960301 13.8682 1.46197 15.3948 2.76865C17.2534 4.39033 17.0517 6.57201 17.0517 8.94444V14.5602C17.0517 16.2461 17.7839 16.9928 18.51 17.8666C18.7086 18.1758 18.7768 18.5526 18.4436 18.7999C17.7138 19.4241 16.3207 20.547 15.5233 21.1706C15.2577 21.3579 14.9257 21.3579 14.5943 21.233C13.3333 20.2349 13.1341 19.798 12.4043 18.8624C11.1533 20.1148 10.0915 20.7973 8.8318 21.1735H8.82932ZM26.02 21.2365H22.1707C21.7723 21.1741 21.5067 20.9245 21.5067 20.6129V2.20748C21.5067 1.83297 21.8393 1.52147 22.2377 1.52147H25.7544C26.1528 1.52147 26.4866 1.83064 26.4866 2.14506V4.57816H26.553C27.4826 2.20748 29.2078 1.14639 31.5981 1.14639C33.9867 1.14639 35.5139 2.20806 36.575 4.57816C37.504 2.20748 39.5611 1.14639 41.8181 1.14639C43.4775 1.14639 45.2063 1.77056 46.2675 3.1414C47.462 4.69891 47.2604 6.94476 47.2604 8.94328V20.5482C47.2604 20.9227 46.9284 21.2348 46.4642 21.2348H42.6807C42.2823 21.1724 42.0167 20.9227 42.0167 20.5482V10.817C42.0167 10.0685 42.0831 8.07177 41.8839 7.38577C41.6183 6.13742 40.7557 5.7635 39.6275 5.7635C38.6979 5.7635 37.769 6.32468 37.3706 7.26268C36.9728 8.19836 36.9728 9.7582 36.9728 10.8187V20.5517C36.9728 20.9262 36.6402 21.2383 36.2424 21.2383H32.3925C32.0611 21.1759 31.7291 20.9262 31.7291 20.5517V10.817C31.7291 8.75836 32.0611 5.70109 29.4063 5.70109C26.6194 5.70109 26.751 8.69594 26.751 10.817V20.5499C26.7489 20.7313 26.6713 20.9047 26.535 21.0331C26.3986 21.1614 26.2142 21.2344 26.0212 21.2365H26.02ZM8.82932 0.959717V4.766C7.50257 4.89083 6.30799 5.57683 5.976 6.94943C5.9096 7.26151 5.7104 7.57302 5.312 7.63602L1.59549 7.1991C1.33051 7.13668 0.932116 6.94943 1.06491 6.45009C1.86109 2.52131 5.44356 1.14463 8.8318 0.959717H8.82932ZM8.82932 9.07103V11.9405C7.23697 12.3768 5.976 13.3125 5.976 15.3087C5.976 16.8662 6.83857 17.9278 8.29688 17.929C8.49546 17.929 8.69465 17.8672 8.82683 17.8672V21.1735C7.9376 21.3849 7.02352 21.4897 6.10631 21.4856C2.92038 21.4856 0.398438 19.6143 0.398438 15.9322C0.398438 13.0004 2.05781 11.0036 4.51335 10.068C5.7768 9.50386 7.30523 9.25886 8.8318 9.07045L8.82932 9.07103Z" fill="black"/>
</svg>
