<svg width="111" height="36" viewBox="0 0 111 36" fill="none" xmlns="http://www.w3.org/2000/svg">
<path d="M14.2128 27.9281C18.3808 27.9281 21.5217 26.5686 23.9803 24.0142C26.5113 21.4882 27.2971 17.9517 27.2971 15.0908C27.2971 14.2025 27.2288 13.3879 27.0921 12.7039H14.2128V16.5184H23.3682C23.0949 18.6641 22.3746 20.2308 21.2859 21.3207C19.9512 22.6462 17.8695 24.1135 14.2128 24.1135C8.5766 24.1135 4.16858 19.5837 4.16858 13.964C4.16858 8.34437 8.5766 3.81173 14.2128 3.81173C17.2511 3.81173 19.4755 5.00662 21.1125 6.53926L23.8124 3.84863C21.5217 1.67171 18.4833 0 14.2128 0C6.49032 0 0 6.26395 0 13.964C0 21.6613 6.49032 27.9281 14.2128 27.9281ZM37.72 27.9281C42.7051 27.9281 46.7706 24.1135 46.7706 18.9338C46.7706 13.7256 42.7051 9.94513 37.72 9.94513C32.7263 9.94513 28.6608 13.7256 28.6608 18.9338C28.6608 24.1135 32.7263 27.9281 37.72 27.9281ZM37.72 24.386C34.984 24.386 32.6238 22.1381 32.6238 18.9338C32.6238 15.701 34.984 13.4901 37.72 13.4901C40.4502 13.4901 42.8076 15.701 42.8076 18.9338C42.8076 22.1381 40.4502 24.386 37.72 24.386ZM57.464 27.9281C62.4519 27.9281 66.5174 24.1135 66.5174 18.9338C66.5174 13.7256 62.4519 9.94513 57.464 9.94513C52.4732 9.94513 48.4076 13.7256 48.4076 18.9338C48.4076 24.1135 52.4732 27.9281 57.464 27.9281ZM57.464 24.386C54.7308 24.386 52.3707 22.1381 52.3707 18.9338C52.3707 15.701 54.7308 13.4901 57.464 13.4901C60.1971 13.4901 62.5544 15.701 62.5544 18.9338C62.5544 22.1381 60.1971 24.386 57.464 24.386ZM76.8691 36C81.5126 36 85.4472 33.2781 85.4472 26.6339V10.4901H81.6863V11.9546H81.5496C80.6585 10.8988 78.9503 9.94513 76.8037 9.94513C72.2912 9.94513 68.1601 13.8959 68.1601 18.9707C68.1601 24.0142 72.2912 27.9281 76.8037 27.9281C78.9503 27.9281 80.6585 26.9745 81.5496 25.8846H81.6863V27.1788C81.6863 30.6216 79.8414 32.4579 76.8691 32.4579C74.4463 32.4579 72.9403 30.7237 72.3225 29.2535L68.8747 30.6868C69.8684 33.0738 72.4961 36 76.8691 36ZM77.1396 24.386C74.4093 24.386 72.1175 22.1069 72.1175 18.9707C72.1175 15.8032 74.4093 13.4901 77.1396 13.4901C79.8414 13.4901 81.9596 15.8032 81.9596 18.9707C81.9596 22.1069 79.8414 24.386 77.1396 24.386ZM92.1405 0.953643H88.1774V27.3832H92.1405V0.953643ZM103.005 27.9281C107.136 27.9281 109.53 25.4106 110.521 23.9432L107.443 21.9026C106.421 23.3955 105.02 24.386 103.005 24.386C100.989 24.386 99.5512 23.4664 98.6316 21.6613L110.692 16.6859L110.282 15.667C109.53 13.6575 107.238 9.94513 102.561 9.94513C97.9142 9.94513 94.0537 13.5922 94.0537 18.9338C94.0537 23.9773 97.88 27.9281 103.005 27.9281ZM97.9825 18.6641C97.88 15.193 100.681 13.4191 102.697 13.4191C104.269 13.4191 105.601 14.2025 106.048 15.3264L97.9825 18.6641Z" fill="#2D2D2D"/>
</svg>
