<svg width="41" height="41" viewBox="0 0 41 41" fill="none" xmlns="http://www.w3.org/2000/svg">
<path d="M15.9582 10.1357H24.3582C27.5582 10.1357 30.1582 12.7357 30.1582 15.9357V24.3357C30.1582 25.874 29.5471 27.3493 28.4594 28.437C27.3717 29.5247 25.8965 30.1357 24.3582 30.1357H15.9582C12.7582 30.1357 10.1582 27.5357 10.1582 24.3357V15.9357C10.1582 14.3975 10.7693 12.9222 11.857 11.8345C12.9447 10.7468 14.4199 10.1357 15.9582 10.1357ZM15.7582 12.1357C14.8034 12.1357 13.8877 12.515 13.2126 13.1902C12.5375 13.8653 12.1582 14.781 12.1582 15.7357V24.5357C12.1582 26.5257 13.7682 28.1357 15.7582 28.1357H24.5582C25.513 28.1357 26.4287 27.7565 27.1038 27.0813C27.7789 26.4062 28.1582 25.4905 28.1582 24.5357V15.7357C28.1582 13.7457 26.5482 12.1357 24.5582 12.1357H15.7582ZM25.4082 13.6357C25.7397 13.6357 26.0577 13.7674 26.2921 14.0019C26.5265 14.2363 26.6582 14.5542 26.6582 14.8857C26.6582 15.2173 26.5265 15.5352 26.2921 15.7696C26.0577 16.004 25.7397 16.1357 25.4082 16.1357C25.0767 16.1357 24.7587 16.004 24.5243 15.7696C24.2899 15.5352 24.1582 15.2173 24.1582 14.8857C24.1582 14.5542 24.2899 14.2363 24.5243 14.0019C24.7587 13.7674 25.0767 13.6357 25.4082 13.6357ZM20.1582 15.1357C21.4843 15.1357 22.7561 15.6625 23.6937 16.6002C24.6314 17.5379 25.1582 18.8097 25.1582 20.1357C25.1582 21.4618 24.6314 22.7336 23.6937 23.6713C22.7561 24.609 21.4843 25.1357 20.1582 25.1357C18.8321 25.1357 17.5604 24.609 16.6227 23.6713C15.685 22.7336 15.1582 21.4618 15.1582 20.1357C15.1582 18.8097 15.685 17.5379 16.6227 16.6002C17.5604 15.6625 18.8321 15.1357 20.1582 15.1357ZM20.1582 17.1357C19.3626 17.1357 18.5995 17.4518 18.0369 18.0144C17.4743 18.577 17.1582 19.3401 17.1582 20.1357C17.1582 20.9314 17.4743 21.6945 18.0369 22.2571C18.5995 22.8197 19.3626 23.1357 20.1582 23.1357C20.9539 23.1357 21.7169 22.8197 22.2795 22.2571C22.8421 21.6945 23.1582 20.9314 23.1582 20.1357C23.1582 19.3401 22.8421 18.577 22.2795 18.0144C21.7169 17.4518 20.9539 17.1357 20.1582 17.1357Z" fill="#242D3C"/>
</svg>
