<svg width="50" height="50" viewBox="0 0 50 50" fill="none" xmlns="http://www.w3.org/2000/svg">
<path d="M25.0408 6.0625C18.1449 6.0625 12.5408 11.6667 12.5408 18.5625V24.5833C12.5408 25.8542 11.9991 27.7917 11.3533 28.875L8.95742 32.8542C7.47825 35.3125 8.49908 38.0417 11.2074 38.9583C20.1866 41.9583 29.8741 41.9583 38.8532 38.9583C41.3741 38.125 42.4782 35.1458 41.1032 32.8542L38.7074 28.875C38.0824 27.7917 37.5408 25.8542 37.5408 24.5833V18.5625C37.5408 11.6875 31.9158 6.0625 25.0408 6.0625Z" stroke="#151B33" stroke-width="1.5" stroke-miterlimit="10" stroke-linecap="round"/>
<path d="M28.8958 6.66797C28.25 6.48047 27.5833 6.33464 26.8958 6.2513C24.8958 6.0013 22.9792 6.14714 21.1875 6.66797C21.7917 5.1263 23.2917 4.04297 25.0417 4.04297C26.7917 4.04297 28.2917 5.1263 28.8958 6.66797Z" stroke="#151B33" stroke-width="1.5" stroke-miterlimit="10" stroke-linecap="round" stroke-linejoin="round"/>
<path d="M31.291 39.707C31.291 43.1445 28.4785 45.957 25.041 45.957C23.3327 45.957 21.7493 45.2487 20.6243 44.1237C19.4993 42.9987 18.791 41.4154 18.791 39.707" stroke="#151B33" stroke-width="1.5" stroke-miterlimit="10"/>
</svg>
