<svg width="62" height="62" viewBox="0 0 62 62" fill="none" xmlns="http://www.w3.org/2000/svg">
<g style="mix-blend-mode:multiply">
<rect x="0.894531" y="0.0761719" width="61" height="61" rx="15" fill="#EAEDB6"/>
</g>
<path d="M42.2225 26.8239C41.9494 25.9157 41.1299 25.1891 40.2194 25.0983L36.3952 24.5533L34.6652 20.9203C34.2099 19.9212 33.3904 19.3762 32.3888 19.3762C31.3873 19.3762 30.5678 19.9212 30.1125 20.8294L28.3825 24.4625L24.5583 25.0983C23.6478 25.2799 22.8283 25.9157 22.5552 26.8239C22.1909 27.823 22.4641 28.8221 23.1925 29.5487L26.0152 32.3643L25.3778 36.3607C25.1957 37.3598 25.6509 38.3588 26.4704 38.9038C26.9257 39.1763 27.3809 39.3579 27.9273 39.3579C28.3825 39.3579 28.7467 39.2671 29.1109 39.0855L32.571 37.1781L36.031 39.0855C36.8504 39.5396 37.852 39.4488 38.6715 38.9038C39.491 38.3588 39.9462 37.3598 39.7641 36.3607L39.1267 32.3643L41.9494 29.5487C42.3136 28.8221 42.5868 27.7322 42.2225 26.8239Z" fill="#99A129"/>
</svg>
