<svg width="62" height="62" viewBox="0 0 62 62" fill="none" xmlns="http://www.w3.org/2000/svg">
<g style="mix-blend-mode:multiply">
<rect x="0.660156" y="0.534668" width="61" height="61" rx="15" fill="#ACDBC4"/>
</g>
<path d="M23.1602 25.4901C23.1602 25.5891 23.1602 25.7871 23.1602 25.8862C21.3602 26.9753 20.1602 28.8565 20.1602 31.0347C20.1602 33.2129 21.3602 35.0941 23.1602 36.1832C23.1602 36.3812 23.1602 36.4802 23.1602 36.6782C23.1602 37.6683 23.4602 38.5594 24.0602 39.2525C24.8602 40.3416 26.1602 41.0347 27.6602 41.0347C28.0602 41.0347 28.3602 41.0347 28.7602 40.9357C29.5602 40.7376 30.1602 39.9456 30.1602 39.0545V36.6782V25.4901V23.0149C30.1602 22.1238 29.5602 21.3317 28.7602 21.1337C28.3602 21.0347 27.9602 21.0347 27.5602 21.0347C25.1602 21.0347 23.1602 23.0149 23.1602 25.4901Z" fill="#478F6C"/>
<path d="M42.1602 31.2347C42.1602 29.0347 40.9602 27.1347 39.1602 26.0347C39.1602 25.9347 39.1602 25.7347 39.1602 25.5347C39.1602 23.0347 37.1602 21.0347 34.6602 21.0347C34.2602 21.0347 33.9602 21.0347 33.5602 21.1347C32.6602 21.3347 32.1602 22.1347 32.1602 23.0347V25.4347V36.6347V39.0347C32.1602 39.9347 32.7602 40.7347 33.5602 40.9347C33.8602 41.0347 34.2602 41.0347 34.6602 41.0347C37.1602 41.0347 39.1602 39.0347 39.1602 36.5347C39.1602 36.4347 39.1602 36.2347 39.1602 36.1347C41.0602 35.3347 42.1602 33.4347 42.1602 31.2347Z" fill="#478F6C"/>
</svg>
