<svg width="41" height="41" viewBox="0 0 41 41" fill="none" xmlns="http://www.w3.org/2000/svg">
<path d="M30.6173 14.1357C29.8473 14.4857 29.0173 14.7157 28.1573 14.8257C29.0373 14.2957 29.7173 13.4557 30.0373 12.4457C29.2073 12.9457 28.2873 13.2957 27.3173 13.4957C26.5273 12.6357 25.4173 12.1357 24.1573 12.1357C21.8073 12.1357 19.8873 14.0557 19.8873 16.4257C19.8873 16.7657 19.9273 17.0957 19.9973 17.4057C16.4373 17.2257 13.2673 15.5157 11.1573 12.9257C10.7873 13.5557 10.5773 14.2957 10.5773 15.0757C10.5773 16.5657 11.3273 17.8857 12.4873 18.6357C11.7773 18.6357 11.1173 18.4357 10.5373 18.1357V18.1657C10.5373 20.2457 12.0173 21.9857 13.9773 22.3757C13.348 22.548 12.6874 22.5719 12.0473 22.4457C12.3189 23.2982 12.8508 24.0442 13.5683 24.5787C14.2858 25.1132 15.1527 25.4094 16.0473 25.4257C14.5309 26.6262 12.6513 27.2751 10.7173 27.2657C10.3773 27.2657 10.0373 27.2457 9.69727 27.2057C11.5973 28.4257 13.8573 29.1357 16.2773 29.1357C24.1573 29.1357 28.4873 22.5957 28.4873 16.9257C28.4873 16.7357 28.4873 16.5557 28.4773 16.3657C29.3173 15.7657 30.0373 15.0057 30.6173 14.1357Z" fill="#242D3C"/>
</svg>
