<svg width="123" height="37" viewBox="0 0 123 37" fill="none" xmlns="http://www.w3.org/2000/svg">
<path d="M25.6491 20.5872L25.3407 22.0442L26.4951 22.985C28.4844 24.6063 30.8849 25.7727 33.6107 25.7727C37.6681 25.7727 40.9362 22.4526 40.9498 18.4178V18.4096C40.9498 14.3577 37.6753 11.0375 33.6107 11.0375C30.8568 11.0375 28.9732 12.441 27.8233 14.0957C26.7687 15.6134 26.2992 17.3604 26.0813 18.5512L26.0722 18.5878L26.0634 18.6294L25.6491 20.5872ZM2.44123 18.6725V8.14284H2.51133V18.6725C2.51133 22.5613 5.65948 25.7544 9.56217 25.7544C13.4647 25.7544 16.6132 22.5615 16.6132 18.6725V8.14284H17.3328C18.1469 10.5545 19.2561 13.1614 20.6282 15.6051L16.6826 16.4972V18.6725C16.6826 22.6634 13.4536 25.9028 9.5528 25.9028C5.65076 25.9028 2.42771 22.6637 2.44122 18.6807H2.44123V18.6725ZM26.3378 17.1289C27.5429 13.0142 30.294 10.9257 33.6105 10.9256H33.6107C37.6775 10.9257 41.0192 14.2691 41.0192 18.3914C41.0192 22.5333 37.6672 25.8938 33.6105 25.8938C31.6023 25.8938 29.84 25.285 28.2522 24.2616L25.2727 22.3413L24.5411 25.8097L22.753 34.287H22.6748L25.0866 22.8755L25.3232 21.7559L25.0748 21.4414L26.3378 17.1289Z" fill="#EAEDB6" stroke="#252A3F" stroke-width="4.88235"/>
<path d="M56.284 11.4784H56.4812L57.1362 14.1366L55.6289 14.1369L56.284 11.4784Z" fill="#EAEDB6" stroke="#252A3F" stroke-width="4.88235"/>
</svg>
