<svg width="24" height="24" viewBox="0 0 24 24" fill="none" xmlns="http://www.w3.org/2000/svg">
<path d="M12 2C6.5 2 2 6.5 2 12C2 14.6 3 17.1 4.9 19L5 19.1C6.2 20.2 7.6 21.1 9.1 21.6C10.1 21.9 11.1 22 12.1 22C13.1 22 14.1 21.8 15.1 21.6C16.6 21.1 18 20.3 19.2 19.2L19.3 19.1C21.1 17.2 22.2 14.7 22.2 12.1C22 6.5 17.5 2 12 2ZM12 4C16.4 4 20 7.6 20 12C20 13.7 19.5 15.3 18.5 16.6C17.7 15.3 16.5 14.4 15.1 13.8C15.8 13 16.3 12 16.3 10.8C16.3 8.4 14.4 6.5 12 6.5C9.6 6.5 7.7 8.4 7.7 10.8C7.7 12 8.2 13 8.9 13.8C7.5 14.4 6.4 15.4 5.5 16.6C4.5 15.3 4 13.6 4 12C4 7.6 7.6 4 12 4Z" fill="#3D425A"/>
</svg>
